<?xml version="1.0" encoding="UTF-8" standalone="no"?>
<!-- Created with Inkscape (http://www.inkscape.org/) -->

<svg
   width="64pt"
   height="64pt"
   viewBox="0 0 22.577778 22.577778"
   version="1.1"
   id="svg831"
   inkscape:version="1.1.2 (0a00cf5339, 2022-02-04)"
   sodipodi:docname="23 - Stomach.svg"
   inkscape:export-filename="/media/taufikramadhan/Data/Tr Design Studio/Project Design/TR Creative Design/Icon Design/Project Hiring/Icon Icons/025 - Healthcare And Medical/5 - Send/1 - Line/23 - Stomach.png"
   inkscape:export-xdpi="576"
   inkscape:export-ydpi="576"
   xmlns:inkscape="http://www.inkscape.org/namespaces/inkscape"
   xmlns:sodipodi="http://sodipodi.sourceforge.net/DTD/sodipodi-0.dtd"
   xmlns="http://www.w3.org/2000/svg"
   xmlns:svg="http://www.w3.org/2000/svg"
   xmlns:rdf="http://www.w3.org/1999/02/22-rdf-syntax-ns#"
   xmlns:cc="http://creativecommons.org/ns#"
   xmlns:dc="http://purl.org/dc/elements/1.1/">
  <defs
     id="defs825">
    <pattern
       id="EMFhbasepattern"
       patternUnits="userSpaceOnUse"
       width="6"
       height="6"
       x="0"
       y="0" />
    <pattern
       id="EMFhbasepattern-9"
       patternUnits="userSpaceOnUse"
       width="6"
       height="6"
       x="0"
       y="0" />
    <pattern
       id="EMFhbasepattern-0"
       patternUnits="userSpaceOnUse"
       width="6"
       height="6"
       x="0"
       y="0" />
    <pattern
       id="EMFhbasepattern-7"
       patternUnits="userSpaceOnUse"
       width="6"
       height="6"
       x="0"
       y="0" />
    <pattern
       id="EMFhbasepattern-2"
       patternUnits="userSpaceOnUse"
       width="6"
       height="6"
       x="0"
       y="0" />
    <pattern
       id="EMFhbasepattern-98"
       patternUnits="userSpaceOnUse"
       width="6"
       height="6"
       x="0"
       y="0" />
    <pattern
       id="EMFhbasepattern-6"
       patternUnits="userSpaceOnUse"
       width="6"
       height="6"
       x="0"
       y="0" />
    <pattern
       id="EMFhbasepattern-01"
       patternUnits="userSpaceOnUse"
       width="6"
       height="6"
       x="0"
       y="0" />
    <pattern
       id="EMFhbasepattern-07"
       patternUnits="userSpaceOnUse"
       width="6"
       height="6"
       x="0"
       y="0" />
    <pattern
       id="EMFhbasepattern-8"
       patternUnits="userSpaceOnUse"
       width="6"
       height="6"
       x="0"
       y="0" />
    <pattern
       id="EMFhbasepattern-4"
       patternUnits="userSpaceOnUse"
       width="6"
       height="6"
       x="0"
       y="0" />
    <pattern
       id="EMFhbasepattern-40"
       patternUnits="userSpaceOnUse"
       width="6"
       height="6"
       x="0"
       y="0" />
    <pattern
       id="EMFhbasepattern-08"
       patternUnits="userSpaceOnUse"
       width="6"
       height="6"
       x="0"
       y="0" />
    <pattern
       id="EMFhbasepattern-04"
       patternUnits="userSpaceOnUse"
       width="6"
       height="6"
       x="0"
       y="0" />
    <pattern
       id="EMFhbasepattern-014"
       patternUnits="userSpaceOnUse"
       width="6"
       height="6"
       x="0"
       y="0" />
    <pattern
       id="EMFhbasepattern-27"
       patternUnits="userSpaceOnUse"
       width="6"
       height="6"
       x="0"
       y="0" />
    <pattern
       id="EMFhbasepattern-09"
       patternUnits="userSpaceOnUse"
       width="6"
       height="6"
       x="0"
       y="0" />
    <pattern
       id="EMFhbasepattern-5"
       patternUnits="userSpaceOnUse"
       width="6"
       height="6"
       x="0"
       y="0" />
    <pattern
       id="EMFhbasepattern-018"
       patternUnits="userSpaceOnUse"
       width="6"
       height="6"
       x="0"
       y="0" />
  </defs>
  <sodipodi:namedview
     id="base"
     pagecolor="#ffffff"
     bordercolor="#666666"
     borderopacity="1.0"
     inkscape:pageopacity="0.0"
     inkscape:pageshadow="2"
     inkscape:zoom="4.6828782"
     inkscape:cx="42.922321"
     inkscape:cy="42.602005"
     inkscape:document-units="pt"
     inkscape:current-layer="layer1"
     showgrid="false"
     units="pt"
     inkscape:window-width="1366"
     inkscape:window-height="719"
     inkscape:window-x="0"
     inkscape:window-y="26"
     inkscape:window-maximized="1"
     inkscape:pagecheckerboard="true"
     inkscape:showpageshadow="false"
     inkscape:object-paths="true"
     inkscape:snap-intersection-paths="true"
     inkscape:snap-smooth-nodes="true"
     inkscape:snap-midpoints="true"
     showguides="true"
     inkscape:snap-bbox="true"
     inkscape:bbox-nodes="true"
     inkscape:snap-nodes="false"
     inkscape:snap-global="true"
     inkscape:snap-others="false">
    <inkscape:grid
       type="xygrid"
       id="grid1378" />
    <sodipodi:guide
       position="0.97013831,21.607643"
       orientation="78.000048,0"
       id="guide1380"
       inkscape:locked="false" />
    <sodipodi:guide
       position="0.97013831,0.97013129"
       orientation="0,78.000005"
       id="guide1382"
       inkscape:locked="false" />
    <sodipodi:guide
       position="21.607639,0.97013129"
       orientation="-78.000048,0"
       id="guide1384"
       inkscape:locked="false" />
    <sodipodi:guide
       position="21.607639,21.607643"
       orientation="0,-78.000005"
       id="guide1386"
       inkscape:locked="false" />
  </sodipodi:namedview>
  <metadata
     id="metadata828">
    <rdf:RDF>
      <cc:Work
         rdf:about="">
        <dc:format>image/svg+xml</dc:format>
        <dc:type
           rdf:resource="http://purl.org/dc/dcmitype/StillImage" />
      </cc:Work>
    </rdf:RDF>
  </metadata>
  <g
     inkscape:label="Icon"
     inkscape:groupmode="layer"
     id="layer1"
     transform="translate(0,-274.42223)">
    <path
       id="path53866"
       style="color:#000000;display:inline;fill:#000000;stroke:none;stroke-width:1;stroke-linecap:round;stroke-linejoin:round;stroke-miterlimit:1.5;-inkscape-stroke:none"
       d="m 6.9648679,291.80656 c 0.2287642,-0.16175 0.397037,-0.35233 0.5203881,-0.5503 4.069915,2.07231 9.119057,-0.0655 11.047187,-4.22299 1.296078,-2.6793 -0.07019,-5.68438 -0.292066,-6.13866 -0.189171,-0.96839 -0.927663,-1.86779 -1.620361,-2.53624 -0.65314,-0.53372 -1.360982,-0.80938 -2.060083,-0.92954 -1.613697,-0.27734 -3.180193,0.27678 -3.81835,0.5477 -0.476006,-0.99318 -0.649847,-1.98593 -0.649847,-1.98593 -0.01196,-0.0678 -0.04399,-0.13059 -0.092381,-0.17952 0,0 -0.1307089,-0.12512 -0.3369514,-0.22833 -0.6405757,-0.25669 -1.1261303,-0.25103 -1.7971561,-10e-6 -0.2062435,0.10309 -0.3343505,0.22833 -0.3343505,0.22833 -0.061747,0.062 -0.096567,0.14596 -0.096924,0.23352 h -0.00133 c 0,0 -0.018951,2.67977 1.7699688,4.71797 l 0.028609,0.0325 c -0.029607,0.28422 -0.026778,0.62018 0.053667,0.99784 0.1521465,0.51817 0.3771138,0.91012 0.689844,1.17739 0.071511,0.0611 0.1472632,0.11467 0.2260362,0.16165 0,0 0.364295,0.46569 0.501192,0.98712 0.06845,0.26072 0.07857,0.52587 -0.01692,0.77928 -0.09472,0.25135 -0.295811,0.51195 -0.7324468,0.75651 -0.1663119,0.0641 -0.8728606,0.34559 -1.6034455,0.78449 -0.7744039,0.4652 -1.6295089,1.09468 -1.8538836,1.96446 -1.5334079,0.54146 -3.0013352,2.10498 -3.0011987,4.30623 0.013522,0.7859 0.3414945,2.13906 1.8556955,2.92203 0.6014353,0.31099 1.4881333,0.39614 2.0828544,0.39614 1.8766409,9e-5 3.7539417,0 5.6293107,0 0.09945,0.0101 0.19808,-0.0254 0.26865,-0.0963 0.286022,-0.33972 0.426248,-0.84003 0.429972,-1.23398 -0.0088,-0.48625 -0.151071,-0.86007 -0.429972,-1.23656 -0.06283,-0.0622 -0.14776,-0.0968 -0.236124,-0.0963 H 7.7656394 c -0.85312,-0.005 -1.1856887,-0.29315 -1.2749823,-0.56527 -0.088941,-0.27105 0.037908,-0.66712 0.4670503,-0.9881 m 2.5721257,-15.26958 c -0.5060002,0.21192 -0.920399,0.1913 -1.3946399,0.006 -0.015719,-0.13971 -0.025611,-0.25455 -0.030574,-0.33891 0.4703042,-0.24711 0.9247654,-0.14491 1.3556133,0.0222 z m -2.9630112,14.73087 c -0.6020016,0.4456 -0.9113235,1.12103 -0.7103289,1.73355 0.2009947,0.61252 0.8892591,1.02096 1.9078708,1.02516 h 3.7682582 c -0.06056,0.18114 -0.105371,0.40471 -0.105371,0.66609 0,0.26235 0.04513,0.48534 0.106026,0.6661 H 7.4326177 c -0.5089045,0 -1.4006882,-0.1296 -1.7777755,-0.32459 -1.2741764,-0.65886 -1.4841733,-1.70965 -1.4947044,-2.33418 0.00133,-1.97856 1.3962719,-3.33477 2.7189169,-3.7258 0.1350112,-0.0403 0.2301031,-0.16106 0.2374801,-0.30174 0.091555,-0.5603 0.8117055,-1.20941 1.5748225,-1.66785 0.7740177,-0.46499 1.5527087,-0.75716 1.5527087,-0.75716 0.572723,-0.3144 0.909462,-0.70416 1.065494,-1.11819 0.156033,-0.41405 0.129947,-0.83144 0.03708,-1.18518 -0.05527,-0.21051 -0.134235,-0.40664 -0.217914,-0.57829 0.166464,-0.0169 0.294528,-0.15472 0.299225,-0.32198 0.0048,-0.18396 -0.140631,-0.33689 -0.324593,-0.34151 -0.676505,-0.0478 -1.010453,-0.558 -1.1702227,-1.07915 -0.1672559,-0.83547 0.1274957,-1.43563 0.1274957,-1.43563 0.08291,-0.16434 0.01678,-0.36479 -0.1476611,-0.44752 -0.078371,-0.0399 -0.1693354,-0.0471 -0.253037,-0.0202 -0.084548,0.0276 -0.1545811,0.0877 -0.1944969,0.16717 0,0 -0.014687,0.0321 -0.037728,0.0891 -0.6701199,-0.89794 -1.0022658,-1.89788 -1.1669682,-2.66503 0.1454589,0.037 0.3134951,0.0612 0.5041253,0.0612 0.3806011,0 0.7103089,-0.0936 0.9477518,-0.18928 0.162878,0.50692 0.4086241,1.12409 0.7662641,1.69908 0.09758,0.15642 0.303146,0.20345 0.459245,0.10536 0.144856,-0.0899 0.196778,-0.27262 0.126191,-0.42346 0.878177,-0.3499 3.352097,-1.13288 5.115418,0.29337 0.769171,0.74627 1.510218,1.83574 1.43367,2.64292 -0.01785,0.18425 0.118072,0.34744 0.302807,0.36361 0.376302,1.06697 0.873167,3.10776 0.01526,4.878 -1.785032,3.85404 -6.468409,5.81937 -10.1892287,3.89119 0.1124468,-0.45656 0.061145,-0.83003 0.061145,-0.83003 -0.024579,-0.18175 -0.1915195,-0.30941 -0.3733773,-0.28555 -0.1825537,0.0237 -0.3113269,0.19084 -0.2875172,0.37338 0,0 0.112594,0.89524 -0.5678708,1.37186 m 7.185312,-11.2254 c -0.183173,6.7e-4 -0.33139,0.14922 -0.331746,0.3324 -6.66e-4,0.18393 0.147806,0.33362 0.331746,0.33434 0.184956,6.7e-4 0.335077,-0.14939 0.334351,-0.33434 -3.34e-4,-0.18419 -0.150158,-0.33312 -0.334351,-0.3324 z m -1.431065,0.70643 c -0.18292,6.7e-4 -0.331034,0.14882 -0.331747,0.33175 -6.66e-4,0.18393 0.147807,0.33362 0.331747,0.33434 0.184954,6.7e-4 0.335076,-0.14939 0.334351,-0.33434 -6.68e-4,-0.18395 -0.150413,-0.33248 -0.334351,-0.33175 z m 2.761959,0.62576 c -0.182923,6.6e-4 -0.331036,0.14882 -0.331749,0.33174 -6.66e-4,0.18395 0.147811,0.33364 0.331749,0.33436 0.184955,6.7e-4 0.335073,-0.14939 0.334348,-0.33436 -6.67e-4,-0.18393 -0.150412,-0.33246 -0.334348,-0.33174 z m -1.332193,0.99914 c -0.183177,6.7e-4 -0.331393,0.14923 -0.331749,0.3324 -6.67e-4,0.18395 0.147809,0.33364 0.331749,0.33436 0.184955,6.6e-4 0.335073,-0.14941 0.334347,-0.33436 -3.32e-4,-0.18419 -0.150158,-0.33312 -0.334347,-0.3324 z m 2.665686,0 c -0.182921,6.7e-4 -0.331034,0.14884 -0.331746,0.33175 -6.66e-4,0.18394 0.147807,0.33364 0.331746,0.33435 0.184954,6.7e-4 0.335076,-0.14939 0.33435,-0.33435 -6.66e-4,-0.18393 -0.150411,-0.33247 -0.33435,-0.33175 z m -1.060936,6.59528 c 1.159255,-0.92789 2.014294,-2.18818 1.954708,-3.63882 v -0.67846 c 6.65e-4,-0.15747 -0.108846,-0.29343 -0.262795,-0.32653 -0.772373,-0.16585 -1.573334,-0.26215 -2.410701,-0.26215 -0.738851,0.003 -1.506065,0.0827 -2.307273,0.26474 -0.152079,0.0339 -0.260573,0.16879 -0.260843,0.3246 0,0.87729 -0.272734,1.47918 -1.103875,2.10952 -0.407389,0.31011 -1.0096965,0.56056 -1.9774752,0.89962 -0.3234465,0.0768 -0.5789779,0.21959 -0.7513105,0.40785 -0.1723291,0.18825 -0.2489669,0.41494 -0.2653962,0.60951 -0.026711,0.63025 0.3761515,1.02583 0.7389511,1.31528 0.5265327,0.41334 1.4072088,0.86065 2.6686168,0.71814 1.339267,-0.19224 2.818139,-0.8154 3.977393,-1.7433 z m -0.757817,-4.19433 c 0.704996,-10e-4 1.383248,0.074 2.046425,0.20229 v 0.38054 c 0.04813,1.17201 -0.651276,2.24866 -1.706224,3.09306 -1.052899,0.84277 -2.445438,1.42613 -3.643366,1.6002 -1.8733502,0.21097 -2.5838755,-0.97036 -2.5986894,-0.99525 -0.0053,-0.0126 -0.074786,-0.16814 -0.061794,-0.32199 0.0068,-0.0798 0.026578,-0.14359 0.091065,-0.21401 0.064461,-0.0704 0.1871731,-0.15501 0.448836,-0.21922 1.0123474,-0.35355 1.6755074,-0.61788 2.1914854,-1.0102 0.844504,-0.64047 1.211057,-1.42502 1.295764,-2.31377 0.67143,-0.13865 1.31444,-0.20008 1.936498,-0.20165 z m -0.800749,0.78122 c -0.183177,6.7e-4 -0.33139,0.14923 -0.331746,0.33241 -6.66e-4,0.18394 0.147807,0.33363 0.331746,0.33435 0.184954,6.7e-4 0.335076,-0.14939 0.334351,-0.33435 -3.34e-4,-0.1842 -0.150158,-0.33312 -0.334351,-0.33241 z m 1.665241,10e-4 c -0.183175,6.7e-4 -0.331389,0.14923 -0.331745,0.3324 -6.67e-4,0.18394 0.147809,0.33363 0.331745,0.33435 0.184955,6.6e-4 0.335073,-0.14939 0.334351,-0.33435 -3.33e-4,-0.18419 -0.150158,-0.33312 -0.334351,-0.3324 z m -2.664386,1.3322 c -0.183177,6.6e-4 -0.33139,0.14922 -0.331746,0.33239 -6.66e-4,0.18395 0.14781,0.33364 0.331746,0.33436 0.184954,6.6e-4 0.335073,-0.14939 0.334351,-0.33436 -3.34e-4,-0.18418 -0.150158,-0.33312 -0.334351,-0.33239 z m 1.665241,0.33305 c -0.183176,6.7e-4 -0.331389,0.14923 -0.331745,0.3324 -6.67e-4,0.18393 0.147809,0.33362 0.331745,0.33434 0.184955,6.7e-4 0.335073,-0.14939 0.334351,-0.33434 -3.33e-4,-0.18419 -0.150158,-0.33312 -0.334351,-0.3324 z m -2.330689,0.99849 c -0.18292,6.7e-4 -0.331034,0.14882 -0.331746,0.33175 -6.66e-4,0.18394 0.147807,0.33363 0.331746,0.33435 0.184956,6.7e-4 0.335077,-0.14939 0.334351,-0.33435 -6.66e-4,-0.18393 -0.150411,-0.33247 -0.334351,-0.33175 z m -1.664589,0.3324 c -0.183177,6.7e-4 -0.331392,0.14922 -0.33175,0.3324 -6.66e-4,0.18393 0.147811,0.33363 0.33175,0.33434 0.184956,6.7e-4 0.335074,-0.14939 0.334347,-0.33434 -3.32e-4,-0.18419 -0.150154,-0.33312 -0.334347,-0.3324 z m 1.78493,5.47839 h 0.666747 c 0.123472,0.21576 0.167176,0.47468 0.167176,0.66609 0,0.25243 -0.08018,0.45963 -0.168475,0.6661 h -0.663497 c -0.123196,-0.21933 -0.168476,-0.46766 -0.168476,-0.6661 0,-0.24349 0.07927,-0.45937 0.166525,-0.66609 z"
       sodipodi:nodetypes="cccccscccccccccccscsscsccscccccccsccccccsccscsscccscssccccccccccscccccccccccccssscsssssssssssssscsssssssccccccccscccscscsccccccccssscsssscsssscsssscssssssscscscccccccc" />
  </g>
</svg>
