<?xml version="1.0" ?><svg xmlns="http://www.w3.org/2000/svg" id="Layer_5" data-name="Layer 5" width="512" height="512" viewBox="0 0 512 512"><defs><style>
      .cls-1 {
        stroke-width: 0px;
      }
    </style></defs><path class="cls-1" d="m294.246,172.291c0,3.314,2.686,6,6,6,7.943-.275,7.94-11.727,0-12-3.314,0-6,2.686-6,6Z"/><path class="cls-1" d="m500.293,303.993c-2.872-4.663-7.648-7.591-12.999-8.524v.005h-.002v-.004c-52.314-11.689-156.472-35.114-207.749-46.649,4.706-16.903,11.278-34.891,17.763-51.974,2.568-7.468-8.117-11.62-11.219-4.259-11.608,31.07-25.365,66.321-24.549,98.81.737,24.291,9.073,43.241,25.863,56.059,2.6,2.016,6.379,1.56,8.417-1.075,2.027-2.622,1.546-6.39-1.075-8.417-9.675-7.482-16.007-17.222-19.079-29.57,4.635,2.816,13.321,4.214,18.62,5.502,8.902,2.068,18.622.312,25.916-5.168,3.39,7.491,10.115,13.372,18.732,15.334l6.668,1.519c7.105,1.666,14.801.218,20.777-3.694,2.593,5.697,7.699,10.177,14.259,11.671l5.392,1.228c5.696,1.329,11.801.546,16.929-2.021,1.657,4.057,5.272,7.097,9.549,8.05,0,0,4.092.932,4.092.932,5.373,1.252,11.13.54,15.986-1.844,1.733,3.855,5.237,6.691,9.358,7.614l4.091.932c5.24,1.201,10.721.637,15.6-1.634.433.934.974,1.822,1.628,2.633-7.595,8.046-8.879,25.027-10.535,47.029-3.135,41.652-7.036,93.49-55.895,98.771-35.923,3.883-85.419-6.984-147.101-32.296-62.493-25.644-115.953-57.388-136.037-69.845-68.331-42.384-89.199-64.428-86.651-119.641.05-.827,5.019-83.254,3.527-135.652-.886-31.13-5.549-60.287-9.295-83.715-3.3-18.758,11.847-37.096,30.928-37.321,0,0,27.103-.771,27.103-.771,5.146-.152,9.953,2.113,13.122,6.203s4.164,9.286,2.731,14.257c-7.465,25.882,6.544,53.295,31.891,62.409l22.529,8.101c15.535,5.586,32.107,6.042,47.923,1.323l72.23-21.549c10.216-3.046,20.057-1.042,27.711,5.648,8.879,7.757,13.138,20.591,11.116,33.492-.859,5.487-2.779,12.658-5.867,21.92-2.265,7.637,8.637,11.226,11.383,3.796,3.348-10.039,5.362-17.621,6.34-23.859,2.653-16.935-3.123-33.942-15.075-44.386-10.713-9.36-24.945-12.315-39.038-8.11l-72.23,21.549c-24.019,7.361-40.96-1.401-62.961-9.218-19.41-6.979-30.138-27.971-24.421-47.792,2.506-8.693.766-17.781-4.776-24.932-5.542-7.15-13.873-11.109-22.949-10.847l-27.104.771C25.718,5.121,4.871,30.212,9.427,55.995c3.691,23.084,8.286,51.812,9.149,82.161,1.476,51.86-3.46,133.759-3.515,134.669-1.439,31.182,4.765,53.91,20.116,73.696,14.95,19.27,38.707,36.014,72.192,56.783,53.534,34.835,210.427,115.655,290.752,103.871,55.696-5.339,64.048-64.004,66.57-109.798,1.292-17.146,2.897-38.486,8.678-40.633,10.252-3.809,23.659-13.626,29.31-38.765,1.086-4.835.238-9.802-2.387-13.986Zm-9.75,13.142c-2.234,8.769-6.985,19.484-17.091,25.25-.499-.084-.876-.425-.933-.565,1.698-7.458,6.336-27.824,8.094-35.545l4.142.928c5.183,1.291,7.433,5.628,5.788,9.933Zm-179.442-16.775c-4.164,2.315-9.188,2.967-14.152,1.837l-10.162-2.313c-5.915-1.347-10.798-5.035-13.27-9.966-.138-8.879,1.198-19.816,3.182-29.356l46.441,10.411-4.185,18.379c-.779,4.625-3.436,8.583-7.854,11.008Zm48.621,11.569c-3.433,2.159-7.501,2.854-11.457,1.952l-6.668-1.519c-8.165-1.858-13.295-10.014-11.436-18.178l.213-.937,4.475-19.651c7.979,1.767,28.095,6.348,36.29,8.218l-4.699,20.638c-.902,3.952-3.287,7.316-6.719,9.475Zm28.971,11.157l-5.392-1.228c-4.702-1.07-7.657-5.769-6.587-10.471l1.428-6.27c.114-.514,4.743-20.819,4.699-20.638l27.098,6.17-5.068,22.261c-1.653,7.265-8.916,11.833-16.178,10.176Zm30.57,6.961l-4.091-.932c-.549-.124-.86-.464-1.026-.727-.165-.263-.335-.69-.21-1.238,2.276-9.993,5.432-23.859,7.704-33.837l17.734,4.038-5.329,23.405c-1.516,6.634-8.144,10.806-14.782,9.291Zm38.755,5.114c-2.793,1.757-6.102,2.322-9.319,1.588l-4.092-.932c-.548-.125-.859-.464-1.024-.727-.165-.262-.336-.69-.211-1.238,1.547-6.795,6.094-26.762,7.704-33.837l17.735,4.039-4.306,18.913-1.021,4.481c-.732,3.217-2.674,5.956-5.466,7.713Z"/></svg>