<?xml version="1.0" encoding="UTF-8" standalone="no"?>
<!-- Created with Inkscape (http://www.inkscape.org/) -->

<svg
   width="64pt"
   height="64pt"
   viewBox="0 0 22.577778 22.577778"
   version="1.1"
   id="svg831"
   inkscape:version="1.1.2 (0a00cf5339, 2022-02-04)"
   sodipodi:docname="2 - Lungs.svg"
   inkscape:export-filename="/media/taufikramadhan/Data/Tr Design Studio/Project Design/TR Creative Design/Icon Design/Project Hiring/Icon Icons/025 - Healthcare And Medical/5 - Send/1 - Line/2 - Lungs.png"
   inkscape:export-xdpi="576"
   inkscape:export-ydpi="576"
   xmlns:inkscape="http://www.inkscape.org/namespaces/inkscape"
   xmlns:sodipodi="http://sodipodi.sourceforge.net/DTD/sodipodi-0.dtd"
   xmlns="http://www.w3.org/2000/svg"
   xmlns:svg="http://www.w3.org/2000/svg"
   xmlns:rdf="http://www.w3.org/1999/02/22-rdf-syntax-ns#"
   xmlns:cc="http://creativecommons.org/ns#"
   xmlns:dc="http://purl.org/dc/elements/1.1/">
  <defs
     id="defs825">
    <pattern
       id="EMFhbasepattern"
       patternUnits="userSpaceOnUse"
       width="6"
       height="6"
       x="0"
       y="0" />
    <pattern
       id="EMFhbasepattern-9"
       patternUnits="userSpaceOnUse"
       width="6"
       height="6"
       x="0"
       y="0" />
    <pattern
       id="EMFhbasepattern-0"
       patternUnits="userSpaceOnUse"
       width="6"
       height="6"
       x="0"
       y="0" />
    <pattern
       id="EMFhbasepattern-7"
       patternUnits="userSpaceOnUse"
       width="6"
       height="6"
       x="0"
       y="0" />
    <pattern
       id="EMFhbasepattern-2"
       patternUnits="userSpaceOnUse"
       width="6"
       height="6"
       x="0"
       y="0" />
    <pattern
       id="EMFhbasepattern-98"
       patternUnits="userSpaceOnUse"
       width="6"
       height="6"
       x="0"
       y="0" />
    <pattern
       id="EMFhbasepattern-6"
       patternUnits="userSpaceOnUse"
       width="6"
       height="6"
       x="0"
       y="0" />
    <pattern
       id="EMFhbasepattern-01"
       patternUnits="userSpaceOnUse"
       width="6"
       height="6"
       x="0"
       y="0" />
    <pattern
       id="EMFhbasepattern-07"
       patternUnits="userSpaceOnUse"
       width="6"
       height="6"
       x="0"
       y="0" />
    <pattern
       id="EMFhbasepattern-8"
       patternUnits="userSpaceOnUse"
       width="6"
       height="6"
       x="0"
       y="0" />
    <pattern
       id="EMFhbasepattern-4"
       patternUnits="userSpaceOnUse"
       width="6"
       height="6"
       x="0"
       y="0" />
    <pattern
       id="EMFhbasepattern-40"
       patternUnits="userSpaceOnUse"
       width="6"
       height="6"
       x="0"
       y="0" />
    <pattern
       id="EMFhbasepattern-08"
       patternUnits="userSpaceOnUse"
       width="6"
       height="6"
       x="0"
       y="0" />
    <pattern
       id="EMFhbasepattern-04"
       patternUnits="userSpaceOnUse"
       width="6"
       height="6"
       x="0"
       y="0" />
    <pattern
       id="EMFhbasepattern-014"
       patternUnits="userSpaceOnUse"
       width="6"
       height="6"
       x="0"
       y="0" />
    <pattern
       id="EMFhbasepattern-27"
       patternUnits="userSpaceOnUse"
       width="6"
       height="6"
       x="0"
       y="0" />
    <pattern
       id="EMFhbasepattern-09"
       patternUnits="userSpaceOnUse"
       width="6"
       height="6"
       x="0"
       y="0" />
    <pattern
       id="EMFhbasepattern-5"
       patternUnits="userSpaceOnUse"
       width="6"
       height="6"
       x="0"
       y="0" />
    <pattern
       id="EMFhbasepattern-018"
       patternUnits="userSpaceOnUse"
       width="6"
       height="6"
       x="0"
       y="0" />
  </defs>
  <sodipodi:namedview
     id="base"
     pagecolor="#ffffff"
     bordercolor="#666666"
     borderopacity="1.0"
     inkscape:pageopacity="0.0"
     inkscape:pageshadow="2"
     inkscape:zoom="4.6828782"
     inkscape:cx="42.708777"
     inkscape:cy="42.602005"
     inkscape:document-units="pt"
     inkscape:current-layer="layer1"
     showgrid="false"
     units="pt"
     inkscape:window-width="1366"
     inkscape:window-height="719"
     inkscape:window-x="0"
     inkscape:window-y="26"
     inkscape:window-maximized="1"
     inkscape:pagecheckerboard="true"
     inkscape:showpageshadow="false"
     inkscape:object-paths="true"
     inkscape:snap-intersection-paths="true"
     inkscape:snap-smooth-nodes="true"
     inkscape:snap-midpoints="true"
     showguides="true"
     inkscape:snap-bbox="true"
     inkscape:bbox-nodes="true"
     inkscape:snap-nodes="false"
     inkscape:snap-global="true"
     inkscape:snap-others="false">
    <inkscape:grid
       type="xygrid"
       id="grid1378" />
    <sodipodi:guide
       position="0.97013831,21.607643"
       orientation="78.000048,0"
       id="guide1380"
       inkscape:locked="false" />
    <sodipodi:guide
       position="0.97013831,0.97013129"
       orientation="0,78.000005"
       id="guide1382"
       inkscape:locked="false" />
    <sodipodi:guide
       position="21.607639,0.97013129"
       orientation="-78.000048,0"
       id="guide1384"
       inkscape:locked="false" />
    <sodipodi:guide
       position="21.607639,21.607643"
       orientation="0,-78.000005"
       id="guide1386"
       inkscape:locked="false" />
  </sodipodi:namedview>
  <metadata
     id="metadata828">
    <rdf:RDF>
      <cc:Work
         rdf:about="">
        <dc:format>image/svg+xml</dc:format>
        <dc:type
           rdf:resource="http://purl.org/dc/dcmitype/StillImage" />
      </cc:Work>
    </rdf:RDF>
  </metadata>
  <g
     inkscape:label="Icon"
     inkscape:groupmode="layer"
     id="layer1"
     transform="translate(0,-274.42223)">
    <path
       id="path3148"
       style="color:#000000;display:inline;fill:#000000;stroke:none;stroke-width:1;stroke-linecap:round;stroke-linejoin:round;stroke-miterlimit:1.5;-inkscape-stroke:none"
       d="m 13.136669,285.02227 -0.05892,0.26865 c -0.24594,-0.26701 -0.370642,-0.50672 -0.457835,-0.76867 l 0.316014,-6.13446 c 0.485632,-0.25375 0.741654,-0.72004 0.866452,-1.10734 0.141927,-0.44045 0.139231,-0.82955 0.139231,-0.82955 -5.6e-5,-0.0858 -0.033,-0.16877 -0.09261,-0.23054 -0.408326,-0.4224 -1.082093,-0.75117 -1.082093,-0.75117 -0.04694,-0.0242 -0.09875,-0.037 -0.151532,-0.037 -0.643712,0 -1.069435,0.25847 -1.322993,0.49475 -0.02576,-0.0246 -0.05292,-0.0495 -0.08224,-0.0738 -0.257412,-0.21302 -0.672378,-0.42095 -1.2459325,-0.42093 l 1.99e-4,3e-5 c -0.053808,3.2e-4 -0.1066614,0.0142 -0.1541211,0.0395 0,0 -0.6705314,0.32619 -1.0788575,0.7486 -0.05961,0.0618 -0.0932,0.14404 -0.09325,0.22988 0,0 -0.00266,0.39233 0.1392276,0.83278 0.124907,0.38763 0.3791788,0.85227 0.8651588,1.10541 l 0.3173103,6.14612 c -0.078961,0.30248 -0.2738298,0.55894 -0.4565444,0.75182 -0.019329,-0.0875 -0.039674,-0.17616 -0.06152,-0.26809 -0.2683658,-1.26061 -0.2027605,-2.91003 -0.6191103,-4.21117 -0.3112693,-0.93399 -1.0154306,-1.26825 -1.5749301,-1.27765 -0.5594997,-0.01 -1.0108619,0.2273 -1.0121847,0.2273 -1.340055,0.69203 -2.5455542,2.1249 -3.2417814,3.34342 -1.9251905,3.31929 -1.9530778,7.55329 -1.9530778,7.55329 -2.785e-4,0.006 -0.0623257,1.54211 -0.0705851,4.39313 -0.001654,0.51833 0.4231865,0.96039 0.9467519,0.94222 0.4373805,-0.0152 1.0377743,-0.0474 1.5875227,-0.12369 1.0352942,-0.18215 1.7898556,-0.81066 2.6031225,-1.13716 0.8132667,-0.32652 1.6255292,-0.51054 2.603686,-0.78739 0.4567004,-0.12938 0.7466504,-0.54807 0.7466504,-1.01604 v -2.6557 c 0,-0.48688 0.1002567,-0.89251 0.1981584,-1.37285 0.089344,-0.43841 0.1720319,-0.9347 0.146996,-1.56389 0.3728823,-0.22831 0.6787933,-0.47263 0.9273253,-0.70716 0.232406,-0.2193 0.415973,-0.42819 0.558207,-0.60223 0.142318,0.17423 0.325357,0.38251 0.55821,0.60223 0.248307,0.23431 0.554364,0.4794 0.927323,0.70781 -0.02466,0.62926 0.06025,1.12603 0.149588,1.56388 0.09788,0.47973 0.195569,0.88357 0.195569,1.37285 v 2.6557 c 0,0.46797 0.292537,0.88667 0.74924,1.01605 0.978157,0.27685 1.790409,0.46087 2.633032,0.7978 0.78296,0.31906 1.53967,0.94486 2.573776,1.12682 0.549749,0.0764 1.150143,0.10864 1.587524,0.12368 0.523565,0.0182 0.946311,-0.42388 0.944808,-0.94221 -0.0083,-2.85103 -0.07095,-4.38628 -0.07123,-4.39314 v -0.01 c -1.12e-4,-0.0162 -0.03157,-4.22999 -1.951754,-7.54293 -0.694898,-1.21852 -1.902987,-2.65139 -3.243045,-3.34343 0,0 -0.450095,-0.23734 -1.009595,-0.22794 -0.5595,0.009 -1.263661,0.34366 -1.57493,1.27765 -0.417097,1.30347 -0.351621,2.95736 -0.620407,4.21506 z m -2.349843,-8.66006 c 0.157038,0.12997 0.203338,0.23248 0.203338,0.23248 0.0797,0.16496 0.278033,0.23459 0.44294,0.15477 0.06856,-0.0331 0.120551,-0.0871 0.153172,-0.14991 -0.0014,3.4e-4 0.273575,-0.42806 0.973002,-0.47693 0.09568,0.0535 0.433949,0.26232 0.694848,0.47727 -0.005,0.0961 -0.0016,0.22481 -0.0829,0.47726 -0.09185,0.28507 -0.244515,0.55958 -0.52,0.71168 -0.435173,-0.22403 -0.976964,-0.2954 -1.362495,-0.29788 -0.492343,-0.009 -0.94393,0.10902 -1.359902,0.29788 -0.2754843,-0.1521 -0.4281399,-0.42661 -0.5200011,-0.71168 -0.081341,-0.25245 -0.077839,-0.3812 -0.08289,-0.47726 0.2642577,-0.21771 0.6160532,-0.43307 0.7045361,-0.48245 0.361811,0.0194 0.611955,0.12533 0.756342,0.24477 z m 1.488121,1.98028 -0.04469,0.86386 h -1.880553 l -0.04469,-0.87228 c 0.347065,-0.12921 0.702536,-0.17822 0.983661,-0.18003 0.333291,-0.0168 0.715023,0.0803 0.986253,0.18845 z m -1.89091,1.52761 h 1.812554 l -0.0544,1.05232 h -1.70441 z m -6.8150234,3.56045 c 0.6402603,-1.12058 1.8286543,-2.49285 2.9717113,-3.08376 0.00232,-9.9e-4 0.3335599,-0.16018 0.694828,-0.15414 0.3614903,0.006 0.714287,0.10313 0.954507,0.81978 0.3559167,1.11569 0.3087693,2.76314 0.6048334,4.15224 0.04797,0.20532 0.088482,0.39357 0.125627,0.57504 -0.2710082,0.17134 -0.6057816,0.33623 -1.0461494,0.48148 -0.1054583,0.04 -0.2001843,0.0818 -0.2930237,0.12595 -0.011842,-0.19941 -0.03799,-0.43902 -0.088718,-0.70261 l 0.3134277,-0.48568 c 0.098546,-0.15412 0.05361,-0.35907 -0.1003757,-0.45783 -0.1514554,-0.0967 -0.3520475,-0.055 -0.4526519,0.0926 -0.076828,-0.20222 -0.1711069,-0.40859 -0.2855803,-0.6139 l -0.9998507,-1.74974 c -0.091155,-0.1574 -0.2918136,-0.21206 -0.4500658,-0.12244 -0.1597609,0.0904 -0.2158703,0.29319 -0.1249809,0.45265 l 0.328318,0.5757 c -0.1089797,-0.0239 -0.2215002,-0.0466 -0.3328504,-0.0642 -0.1811894,-0.0286 -0.3513015,0.0954 -0.3794772,0.27651 -0.027154,0.18032 0.096361,0.34867 0.2765121,0.37688 0.3291601,0.0515 0.707772,0.16028 0.8968889,0.21758 0.4107829,0.67479 0.6834091,1.46337 0.7369391,2.2296 -0.4475028,-0.15331 -0.9980437,-0.20124 -1.40135,-0.13663 -0.07573,0.0129 -0.1510707,0.0293 -0.2253528,0.0493 -0.2967206,-0.0275 -0.5596952,-0.13386 -0.8366649,-0.2571 -0.1440053,-0.11265 -0.3519845,-0.0873 -0.4649593,0.0564 -0.1126664,0.14401 -0.087445,0.352 0.056342,0.46497 0.108516,0.0848 0.2259563,0.14687 0.3445079,0.19491 -0.019628,0.0158 -0.038961,0.0319 -0.058282,0.0486 0,0 -0.9950896,0.92143 -1.6474251,1.3599 -0.1520986,0.102 -0.1927443,0.30771 -0.090661,0.45978 0.1020298,0.15211 0.3083482,0.19273 0.4604235,0.0906 0.7402249,-0.49754 1.7034584,-1.40113 1.7154211,-1.41235 0.5106479,-0.43881 1.173842,-0.53459 1.8469098,-0.32507 0.1627416,0.0593 0.3082588,0.13402 0.4287235,0.20721 0.111486,0.0876 0.2663466,0.0946 0.385306,0.0175 0.2064839,-0.13678 0.4297944,-0.25349 0.6653857,-0.34484 0.8992429,-0.29715 1.4750883,-0.7094 1.8786101,-1.08921 0.3004864,-0.30934 0.5455034,-0.67373 0.6427124,-1.08954 0.0066,-0.0303 0.0091,-0.0615 0.0071,-0.0926 l -0.0654,-1.27507 h 1.460275 l -0.06605,1.27507 c -0.002,0.0397 0.003,0.0792 0.01489,0.11717 0.113533,0.35841 0.305573,0.71042 0.631381,1.06201 0.10317,0.0976 0.213997,0.19448 0.336739,0.29011 -0.0307,0.18107 -0.05947,0.36454 -0.08484,0.54721 -0.212197,-0.14858 -0.394547,-0.30038 -0.550439,-0.44748 -0.277133,-0.25742 -0.524879,-0.55074 -0.720099,-0.84055 -0.06589,-0.0983 -0.169274,-0.17363 -0.293353,-0.17289 -0.129193,1.8e-4 -0.236654,0.0782 -0.29853,0.18844 -0.206666,0.30875 -0.484157,0.60603 -0.714921,0.825 -0.4391098,0.41435 -1.0813926,0.86763 -2.0495663,1.187 -1.2123126,0.62031 -1.8401395,1.62758 -2.3137757,2.68938 -0.046971,0.10551 -0.034333,0.22278 0.021352,0.31475 0.4081702,0.67852 0.7194097,1.32793 0.7589678,2.03276 0.00979,0.18331 0.1670683,0.3239 0.3503433,0.31342 0.1833146,-0.01 0.3232518,-0.16705 0.3127779,-0.35033 -0.045662,-0.81379 -0.3773355,-1.52184 -0.7686691,-2.18685 0.3064882,-0.66287 0.6542751,-1.24509 1.1695185,-1.70377 -0.075363,0.37531 -0.1146727,0.82081 -0.031066,1.2524 0.035075,0.17983 0.2093951,0.29684 0.3891887,0.26163 0.1798234,-0.0351 0.2968399,-0.2094 0.2616218,-0.3892 -0.111595,-0.57622 0.1277027,-1.36126 0.2337711,-1.6675 0.1886063,-0.0667 0.3664868,-0.13859 0.5342482,-0.21499 -0.00949,0.40592 -0.067323,0.74518 -0.1359883,1.08209 -0.094374,0.46306 -0.213052,0.92814 -0.213052,1.50496 v 2.6557 c 0,0.13945 -0.1608716,0.34762 -0.2642114,0.37689 -0.9580976,0.27119 -1.7979157,0.45923 -2.7052255,0.82456 -0.9073064,0.36531 -1.6182813,0.94184 -2.430086,1.08448 -0.5006912,0.0684 -1.0812314,0.10263 -1.5023688,0.11717 -0.1423574,0.005 -0.2601696,-0.10802 -0.2596756,-0.27844 0.00826,-2.84836 0.070585,-4.38375 0.070585,-4.38375 0,0 0.062654,-4.12751 1.8650096,-7.23501 z M 15.344443,280.1926 c 0.361287,-0.006 0.692616,0.15371 0.694847,0.15477 1.143057,0.59089 2.331451,1.96317 2.971712,3.08374 0.630724,1.08745 1.047783,2.29878 1.324286,3.41465 0.002,0.31246 -0.02009,2.29858 -0.845083,4.01561 -0.08024,0.16504 -0.01115,0.36384 0.154124,0.44358 0.165732,0.0799 0.364812,0.01 0.443587,-0.15672 0.322659,-0.67152 0.531145,-1.36998 0.666351,-2.00617 0.111691,0.91638 0.121742,1.51921 0.121742,1.51921 -4.7e-5,0.004 -4.7e-5,0.006 0,0.01 0,0 0.06233,1.53055 0.07059,4.37889 3.32e-4,0.17039 -0.116666,0.2834 -0.259028,0.27846 -0.17428,-0.006 -0.37923,-0.0165 -0.591233,-0.0304 -0.08658,-0.13713 -0.227628,-0.3751 -0.36588,-0.6696 -0.221202,-0.4712 -0.416311,-1.07737 -0.372356,-1.5613 0.06412,-0.70598 -0.289502,-1.30907 -0.836661,-1.74002 -0.547159,-0.43095 -1.288077,-0.73397 -2.119506,-0.96229 -2.002039,-0.55493 -2.954375,-2.77868 -2.966533,-2.80724 2.46e-4,-0.11504 0.0033,-0.23441 0.01228,-0.36199 0.03713,-0.36108 0.09278,-0.74668 0.15736,-1.1203 0.378807,-0.3279 1.817279,-1.65509 2.253555,-3.27283 0.271695,-1.00746 0.0059,-1.78345 -0.338033,-2.2691 -0.09209,-0.13006 -0.190446,-0.24101 -0.284933,-0.3348 0.03612,-0.002 0.07241,-0.005 0.108784,-0.005 z m -0.722043,0.34127 c 0.102882,0.0838 0.234527,0.20975 0.357462,0.38336 0.253313,0.35777 0.460513,0.88472 0.23701,1.71348 -0.231921,0.85997 -0.86424,1.6945 -1.379978,2.26651 0.239362,-1.32528 0.217555,-2.83612 0.550438,-3.88155 0.06964,-0.20928 0.148856,-0.36487 0.235068,-0.4818 z m -4.150295,1.05166 h 1.636418 l -0.0544,1.04972 h -1.528272 z m -4.6560482,5.75434 c -0.2365131,0.0211 -0.4830823,0.12306 -0.7375856,0.32638 0,0 -0.9727658,0.92339 -1.7782345,1.46481 -0.1520953,0.102 -0.1927442,0.30836 -0.090658,0.46042 0.1020273,0.15211 0.3077017,0.19275 0.4597738,0.0907 0.8760108,-0.58882 1.8099777,-1.48329 1.8332795,-1.50561 0.063941,-0.0503 0.1197554,-0.0868 0.169018,-0.11328 -0.4934798,0.72997 -0.8363631,1.5439 -1.1177127,2.29046 l -0.8502621,0.26097 c -0.1749792,0.0535 -0.2734585,0.23811 -0.2201739,0.41315 0.05348,0.17497 0.2387611,0.27411 0.4137968,0.22082 l 0.2143484,-0.066 c -0.2311816,0.32775 -0.5196828,0.63659 -0.8386077,0.86386 -0.1494628,0.10602 -0.184578,0.31303 -0.078357,0.46237 0.1060549,0.14946 0.3136764,0.18458 0.4630165,0.0783 0.6658531,-0.4745 1.1704899,-1.17322 1.4557419,-1.84299 0.3547298,-0.95684 0.7951506,-1.99123 1.4589813,-2.77809 0.1182692,-0.13975 0.1008006,-0.34926 -0.039184,-0.46754 -0.2199418,-0.13677 -0.4817892,-0.16305 -0.7171816,-0.15866 z m 7.8472872,1.86565 c 0.55279,0.70326 1.391278,1.47387 2.561801,1.7983 0.678803,0.18641 1.272911,0.42644 1.70117,0.70975 h -2.647922 c 0,0 -0.417188,-0.0164 -0.832132,0.22729 -0.255492,0.15005 -0.50739,0.41326 -0.663115,0.80236 v -2.47374 c 0,-0.39664 -0.05511,-0.73875 -0.119799,-1.06396 z m -8.1607117,1.99388 c -0.078218,0.0352 -0.1359716,0.0967 -0.1677215,0.16966 -0.3323994,0.61455 -0.8118279,1.20108 -1.4227155,1.63643 -0.1494727,0.10601 -0.1845879,0.31365 -0.078357,0.463 0.1060523,0.14946 0.3130264,0.18459 0.4623665,0.0783 0.5003597,-0.35658 0.9180522,-0.79422 1.2524045,-1.266 0.00935,0.0541 0.015417,0.10614 0.018137,0.15476 0.00979,0.18331 0.1664118,0.32326 0.3496901,0.31279 0.1833147,-0.01 0.3238983,-0.16641 0.3134244,-0.34969 -0.018766,-0.33469 -0.1267742,-0.67457 -0.2888162,-1.03288 -0.056318,-0.12519 -0.1810933,-0.19841 -0.3101917,-0.19558 -0.043032,0.001 -0.086483,0.01 -0.1282199,0.0292 z m 13.0783797,1.17729 c 0.09883,0.1899 0.137957,0.39586 0.116566,0.63138 -0.0628,0.69136 0.184003,1.37655 0.430633,1.90192 0.05287,0.11266 0.10624,0.21763 0.158009,0.31407 -0.03396,-0.004 -0.06836,-0.009 -0.101666,-0.013 -0.811801,-0.14264 -1.525369,-0.71917 -2.435523,-1.08922 -0.821225,-0.32836 -1.593598,-0.51394 -2.448471,-0.74923 0.0518,-0.52916 0.271144,-0.73536 0.481146,-0.85868 0.21026,-0.12344 0.417609,-0.13614 0.466252,-0.13728 z"
       sodipodi:nodetypes="ccccscccsccccccccccccccccccccccssscscscsssccccscccccccccccccccccscccccccccccccccccccccccccccccccccscccccccccccccccccccccccccccccccccccccccccccccsssccccsccccccccccccccsssccccsscccccsccccscccscccccccccccccccccccsccscscscccccccccscccsccccsscc" />
  </g>
</svg>
