<?xml version="1.0" encoding="UTF-8" standalone="no"?>
<!-- Created with Inkscape (http://www.inkscape.org/) -->

<svg
   width="64pt"
   height="64pt"
   viewBox="0 0 22.577778 22.577778"
   version="1.1"
   id="svg831"
   inkscape:version="1.1.2 (0a00cf5339, 2022-02-04)"
   sodipodi:docname="29 - Healthy Food.svg"
   inkscape:export-filename="/media/taufikramadhan/Data/Tr Design Studio/Project Design/TR Creative Design/Icon Design/Project Hiring/Icon Icons/025 - Healthcare And Medical/5 - Send/1 - Line/29 - Healthy Food.png"
   inkscape:export-xdpi="576"
   inkscape:export-ydpi="576"
   xmlns:inkscape="http://www.inkscape.org/namespaces/inkscape"
   xmlns:sodipodi="http://sodipodi.sourceforge.net/DTD/sodipodi-0.dtd"
   xmlns="http://www.w3.org/2000/svg"
   xmlns:svg="http://www.w3.org/2000/svg"
   xmlns:rdf="http://www.w3.org/1999/02/22-rdf-syntax-ns#"
   xmlns:cc="http://creativecommons.org/ns#"
   xmlns:dc="http://purl.org/dc/elements/1.1/">
  <defs
     id="defs825">
    <pattern
       id="EMFhbasepattern"
       patternUnits="userSpaceOnUse"
       width="6"
       height="6"
       x="0"
       y="0" />
    <pattern
       id="EMFhbasepattern-9"
       patternUnits="userSpaceOnUse"
       width="6"
       height="6"
       x="0"
       y="0" />
    <pattern
       id="EMFhbasepattern-0"
       patternUnits="userSpaceOnUse"
       width="6"
       height="6"
       x="0"
       y="0" />
    <pattern
       id="EMFhbasepattern-7"
       patternUnits="userSpaceOnUse"
       width="6"
       height="6"
       x="0"
       y="0" />
    <pattern
       id="EMFhbasepattern-2"
       patternUnits="userSpaceOnUse"
       width="6"
       height="6"
       x="0"
       y="0" />
    <pattern
       id="EMFhbasepattern-98"
       patternUnits="userSpaceOnUse"
       width="6"
       height="6"
       x="0"
       y="0" />
    <pattern
       id="EMFhbasepattern-6"
       patternUnits="userSpaceOnUse"
       width="6"
       height="6"
       x="0"
       y="0" />
    <pattern
       id="EMFhbasepattern-01"
       patternUnits="userSpaceOnUse"
       width="6"
       height="6"
       x="0"
       y="0" />
    <pattern
       id="EMFhbasepattern-07"
       patternUnits="userSpaceOnUse"
       width="6"
       height="6"
       x="0"
       y="0" />
    <pattern
       id="EMFhbasepattern-8"
       patternUnits="userSpaceOnUse"
       width="6"
       height="6"
       x="0"
       y="0" />
    <pattern
       id="EMFhbasepattern-4"
       patternUnits="userSpaceOnUse"
       width="6"
       height="6"
       x="0"
       y="0" />
    <pattern
       id="EMFhbasepattern-40"
       patternUnits="userSpaceOnUse"
       width="6"
       height="6"
       x="0"
       y="0" />
    <pattern
       id="EMFhbasepattern-08"
       patternUnits="userSpaceOnUse"
       width="6"
       height="6"
       x="0"
       y="0" />
    <pattern
       id="EMFhbasepattern-04"
       patternUnits="userSpaceOnUse"
       width="6"
       height="6"
       x="0"
       y="0" />
    <pattern
       id="EMFhbasepattern-014"
       patternUnits="userSpaceOnUse"
       width="6"
       height="6"
       x="0"
       y="0" />
    <pattern
       id="EMFhbasepattern-27"
       patternUnits="userSpaceOnUse"
       width="6"
       height="6"
       x="0"
       y="0" />
    <pattern
       id="EMFhbasepattern-09"
       patternUnits="userSpaceOnUse"
       width="6"
       height="6"
       x="0"
       y="0" />
    <pattern
       id="EMFhbasepattern-5"
       patternUnits="userSpaceOnUse"
       width="6"
       height="6"
       x="0"
       y="0" />
    <pattern
       id="EMFhbasepattern-018"
       patternUnits="userSpaceOnUse"
       width="6"
       height="6"
       x="0"
       y="0" />
  </defs>
  <sodipodi:namedview
     id="base"
     pagecolor="#ffffff"
     bordercolor="#666666"
     borderopacity="1.0"
     inkscape:pageopacity="0.0"
     inkscape:pageshadow="2"
     inkscape:zoom="4.6828782"
     inkscape:cx="43.349408"
     inkscape:cy="42.602005"
     inkscape:document-units="pt"
     inkscape:current-layer="layer1"
     showgrid="false"
     units="pt"
     inkscape:window-width="1366"
     inkscape:window-height="719"
     inkscape:window-x="0"
     inkscape:window-y="26"
     inkscape:window-maximized="1"
     inkscape:pagecheckerboard="true"
     inkscape:showpageshadow="false"
     inkscape:object-paths="true"
     inkscape:snap-intersection-paths="true"
     inkscape:snap-smooth-nodes="true"
     inkscape:snap-midpoints="true"
     showguides="true"
     inkscape:snap-bbox="true"
     inkscape:bbox-nodes="true"
     inkscape:snap-nodes="false"
     inkscape:snap-global="true"
     inkscape:snap-others="false">
    <inkscape:grid
       type="xygrid"
       id="grid1378" />
    <sodipodi:guide
       position="0.97013831,21.607643"
       orientation="78.000048,0"
       id="guide1380"
       inkscape:locked="false" />
    <sodipodi:guide
       position="0.97013831,0.97013129"
       orientation="0,78.000005"
       id="guide1382"
       inkscape:locked="false" />
    <sodipodi:guide
       position="21.607639,0.97013129"
       orientation="-78.000048,0"
       id="guide1384"
       inkscape:locked="false" />
    <sodipodi:guide
       position="21.607639,21.607643"
       orientation="0,-78.000005"
       id="guide1386"
       inkscape:locked="false" />
  </sodipodi:namedview>
  <metadata
     id="metadata828">
    <rdf:RDF>
      <cc:Work
         rdf:about="">
        <dc:format>image/svg+xml</dc:format>
        <dc:type
           rdf:resource="http://purl.org/dc/dcmitype/StillImage" />
      </cc:Work>
    </rdf:RDF>
  </metadata>
  <g
     inkscape:label="Icon"
     inkscape:groupmode="layer"
     id="layer1"
     transform="translate(0,-274.42223)">
    <path
       id="path114392"
       style="color:#000000;display:inline;fill:#000000;stroke:none;stroke-width:1;stroke-linecap:round;stroke-linejoin:round;stroke-miterlimit:1.5;-inkscape-stroke:none"
       d="m 16.319135,285.03483 c 0.115754,0.22006 0.136335,0.38061 0.122888,0.48374 -0.02417,0.18291 0.105023,0.3506 0.288039,0.37386 0.181499,0.0223 0.346968,-0.10606 0.37061,-0.28738 0.02599,-0.19918 -0.0014,-0.41242 -0.08192,-0.63394 0.584828,-0.56132 0.676409,-1.2935 0.591027,-1.8485 -0.09454,-0.61449 -0.3885,-1.0725 -0.3885,-1.0725 -0.06957,-0.10192 -0.183912,-0.16817 -0.307227,-0.16612 -0.05363,9.9e-4 -0.106054,0.003 -0.157998,0.005 0.07027,-0.23039 0.11461,-0.47507 0.148247,-0.71521 0.06309,-0.45035 0.07523,-0.87646 0.06632,-1.13785 -0.01944,-0.57064 -0.513871,-0.9668 -1.046161,-0.98244 0.06373,-0.20341 0.170218,-0.39357 0.306891,-0.61574 0.0959,-0.15616 0.04712,-0.36045 -0.108583,-0.45708 -0.0754,-0.0472 -0.16636,-0.0622 -0.252927,-0.0417 -0.08599,0.0205 -0.159938,0.0741 -0.206111,0.14955 -0.176564,0.28702 -0.347009,0.59423 -0.426529,0.96424 h -0.136537 v -1.4974 c 6.65e-4,-0.18392 -0.147678,-0.33356 -0.331602,-0.33419 l -1.16e-4,-4e-5 c -0.184883,-6.7e-4 -0.334932,0.14931 -0.334199,0.33419 v 1.4974 h -0.106633 c -0.07952,-0.37002 -0.249957,-0.67721 -0.426525,-0.96423 -0.04618,-0.0754 -0.120775,-0.12898 -0.206763,-0.14955 -0.08578,-0.0198 -0.175582,-0.005 -0.250324,0.0416 -0.15658,0.0958 -0.205999,0.3003 -0.110534,0.45708 0.136513,0.22192 0.243061,0.41194 0.307541,0.61509 h -0.03771 c -0.544564,0 -1.061447,0.40079 -1.081271,0.98309 -0.0117,0.3439 0.0098,0.97619 0.143692,1.56697 -0.43709,0.2564 -0.734736,0.59839 -1.026006,0.97985 -0.41277,-0.094 -0.836834,0.0497 -1.12939,0.32639 -0.384542,-0.22861 -0.8348519,-0.35891 -1.3133918,-0.3589 -1.4153664,0 -2.5702253,1.15225 -2.570222,2.56762 3.4e-6,0.39428 0.089067,0.7699 0.2483765,1.10533 -0.1423678,0.0375 -0.2478305,0.16588 -0.2483765,0.3199 v 0.57607 c -0.5070594,-0.11161 -0.9538075,-0.0599 -1.2659276,0.0162 0.069902,-0.31389 0.2132988,-0.72072 0.5065002,-1.02666 0.1280333,-0.13283 0.1236928,-0.34465 -0.00975,-0.47204 -0.1325938,-0.12632 -0.3423873,-0.12205 -0.4694417,0.0101 -0.1045806,0.10909 -0.1946566,0.22432 -0.2724319,0.34201 -0.1257398,-0.11211 -0.2847523,-0.2222 -0.5013002,-0.26592 -0.1797292,-0.0355 -0.3543851,0.0811 -0.3907677,0.26072 -0.037001,0.18058 0.079374,0.35636 0.2600778,0.39271 0.143097,0.0602 0.2200801,0.156 0.3237983,0.24513 -0.071194,0.20586 -0.1140712,0.39862 -0.1397913,0.55917 h -6.657e-4 c -0.131106,-0.0396 -0.3121934,-0.0795 -0.5617683,-0.10343 -0.420945,-0.0355 -0.9389502,0.005 -1.4739899,0.25227 v -1.69701 c 0.057246,-0.0947 0.1857081,-0.28545 0.3855644,-0.46033 0.2796923,-0.24473 0.647147,-0.43964 1.1989582,-0.30169 0.6721345,0.16803 1.0954497,0.25095 1.356959,0.29453 0.1741033,0.0291 0.2869429,0.04 0.343952,0.0442 0.1541592,0.0208 0.3020931,-0.0682 0.3563058,-0.21391 0.063401,-0.17236 -0.024735,-0.36351 -0.1970067,-0.42719 -0.2768926,-0.16334 -0.4492847,-0.39179 -0.4492847,-0.68855 -3.3e-6,-0.1878 0.1464027,-0.3316 0.334198,-0.3316 0.093951,0 0.1754315,0.0375 0.2360226,0.0981 0.1298509,0.12911 0.3395876,0.12911 0.4694385,0 0.1304067,-0.13007 0.1304067,-0.34131 0,-0.47138 -0.1803817,-0.18044 -0.4316944,-0.2926 -0.7054611,-0.2926 -0.5476267,0 -1.0000041,0.44978 -0.9999974,0.9974 -3.3e-6,0.1784 0.043514,0.3496 0.1144349,0.50975 -0.1941738,-0.0426 -0.4238746,-0.0961 -0.699612,-0.16515 -0.7458585,-0.18645 -1.3549917,0.0837 -1.744471,0.40313 v -3.74318 h 2.6638467 c 0.1829617,-6.6e-4 0.3309688,-0.14863 0.3316013,-0.33159 6.658e-4,-0.18392 -0.1476776,-0.33357 -0.3316013,-0.3342 H 2.7253652 l 0.1664498,-0.66581 h 0.6001283 l 0.2353734,0.23538 c 0.1301305,0.13067 0.3419079,0.13067 0.4720385,0 l 0.2353734,-0.23538 h 2.5981755 l 0.2600778,1.03967 v 1.62419 c -6.658e-4,0.18392 0.1483267,0.33356 0.3322505,0.33419 0.1848825,6.7e-4 0.3349337,-0.14931 0.3342014,-0.33419 v -1.66385 c 7.32e-5,-0.0273 -0.00386,-0.0547 -0.010393,-0.0813 l -0.3237983,-1.28998 v -1.29259 c -6.594e-4,-0.18296 -0.1492892,-0.33096 -0.3322442,-0.3316 H 2.6317538 c -0.1829516,6.6e-4 -0.3316013,0.14864 -0.3322506,0.3316 v 1.28998 l -0.3244472,1.29259 c -0.00653,0.0265 -0.00989,0.054 -0.00975,0.0813 v 7.20936 c -0.4024226,0.42415 -0.7458351,0.96291 -0.8920681,1.47529 -0.23270338,0.84225 -0.12544273,2.0133 0.887514,3.43563 h 0.00267 c 0,0 0.259755,0.36213 0.611833,0.72952 0.1760374,0.18368 0.3739995,0.37074 0.5897252,0.5208 0.2157256,0.15007 0.4498806,0.27828 0.7321197,0.27828 0.2524112,-0.0179 0.4686761,-0.11525 0.693107,-0.1944 0.1785108,-0.0653 0.2631074,-0.10003 0.3387521,-0.13004 0.076121,0.0301 0.161716,0.0649 0.3394012,0.13004 0.2298373,0.10292 0.4991165,0.1944 0.6931071,0.1944 0.2822424,0 0.5137941,-0.12821 0.7295197,-0.27828 0.4827245,-0.35448 0.8342633,-0.76746 1.2041614,-1.25032 0.2147337,-0.30152 0.3884374,-0.59179 0.5273066,-0.86996 0.1477407,0.141 0.339481,0.30303 0.5715221,0.45708 -0.2373608,0.27953 -0.3686598,0.61571 -0.3686598,0.94083 v 0.6658 c -6.658e-4,0.18392 0.1476876,0.33355 0.3315981,0.33421 h 5.9915457 c 0.18487,6.7e-4 0.334907,-0.14934 0.334199,-0.33421 v -0.6658 c 0,-0.34991 -0.159127,-0.66033 -0.379712,-0.92002 0.598469,-0.38475 0.930763,-0.82114 0.951882,-0.84915 1.461883,-1.4696 1.425228,-3.88752 1.425228,-3.88752 v -1.00065 c -6.66e-4,-0.18391 -0.150288,-0.33231 -0.334199,-0.3316 h -2.652794 c 0.300109,-0.54382 0.872939,-1.46787 1.680102,-2.27048 0.131391,-0.12942 0.131954,-0.34123 0.002,-0.47204 -0.06243,-0.0628 -0.146792,-0.0981 -0.23537,-0.0981 -0.08858,6e-5 -0.173587,0.0354 -0.236019,0.0981 -1.061707,1.05571 -1.732064,2.27843 -1.96554,2.74252 h -0.938231 c -0.331059,-0.26353 -0.335703,-0.48401 -0.269183,-0.65085 0.07208,-0.18076 0.282132,-0.33342 0.572824,-0.29518 0.181764,0.024 0.348447,-0.10318 0.373211,-0.28478 0.01044,-0.0799 -0.0078,-0.15713 -0.04746,-0.22043 -0.105978,-0.20906 -0.124838,-0.36317 -0.111829,-0.46293 0.01345,-0.10317 0.05316,-0.15887 0.115088,-0.20417 0.100417,-0.0735 0.292745,-0.10267 0.492196,-0.0136 0.01685,0.17961 0.173713,0.31311 0.353704,0.30104 0.18299,-0.0126 0.321386,-0.17067 0.309495,-0.35371 0,0 -0.02739,-0.31284 0.245773,-0.67295 0.261382,-0.34455 0.815684,-0.74216 2.112485,-0.79844 0.06939,0.15141 0.162361,0.39182 0.204809,0.66775 0.07191,0.46743 0.02447,0.96671 -0.537696,1.38982 -0.129803,0.099 -0.169998,0.27713 -0.09426,0.42167 z M 2.9659551,278.2201 h 3.9928454 v 0.66579 H 2.9659551 Z m 12.9258689,1.49935 c 0.190858,0 0.407703,0.18687 0.412873,0.33875 0.0016,0.0447 0.0024,0.0998 0.002,0.15994 h -1.024056 c -0.184883,-6.7e-4 -0.334931,0.14932 -0.334197,0.3342 6.65e-4,0.18393 0.150279,0.33233 0.334197,0.3316 h 0.986998 c -0.0069,0.0659 -0.01475,0.13244 -0.02407,0.19896 -0.04658,0.33249 -0.133479,0.66631 -0.23277,0.87906 -0.714849,0.11802 -1.220637,0.35699 -1.56892,0.64045 l -6.65e-4,-6.7e-4 c -0.129139,-0.29191 -0.287709,-0.53292 -0.43303,-0.71782 h 0.605981 c 0.183924,-6.6e-4 0.332976,-0.15028 0.33225,-0.3342 -6.66e-4,-0.18296 -0.149288,-0.33097 -0.33225,-0.3316 H 13.27091 c -0.0723,-0.44613 -0.09059,-0.92379 -0.08258,-1.15994 0.0052,-0.15188 0.224617,-0.33876 0.415473,-0.33876 z m -12.2600695,1.83029 c -0.1848725,-6.6e-4 -0.3349271,0.14933 -0.3342013,0.3342 3.329e-4,0.18411 0.1500912,0.33297 0.3342013,0.33225 h 2.6612466 c 0.1841102,6.7e-4 0.3338418,-0.14814 0.334198,-0.33225 6.659e-4,-0.18487 -0.1493255,-0.33492 -0.334198,-0.3342 z m 7.2835055,1.90246 c 0.168397,-0.20719 0.456309,-0.30426 0.703194,-0.17331 0.159049,0.0846 0.357328,0.0281 0.447018,-0.12909 0.301038,-0.4425 0.69349,-0.9305 1.219092,-1.08384 0.171117,0.17098 0.505604,0.55991 0.665779,1.12358 -0.04152,0.0766 -0.07562,0.15229 -0.103387,0.22496 -0.351568,-0.1111 -0.722894,-0.0668 -1.007152,0.14109 -0.200484,0.14665 -0.345532,0.38143 -0.381012,0.65344 -0.01794,0.1376 -0.0094,0.28212 0.02407,0.43174 -0.351949,0.0966 -0.639843,0.34239 -0.771132,0.67165 -0.109652,0.27501 -0.09212,0.59655 0.05592,0.89922 h -0.951888 c -0.580562,-0.23424 -0.659663,-0.55925 -0.607931,-0.85046 0.0532,-0.29947 0.305898,-0.53105 0.540313,-0.52081 0.183977,0.008 0.339285,-0.13525 0.346552,-0.31924 0.0038,-0.0913 -0.02943,-0.17539 -0.08614,-0.2383 -0.330632,-0.36435 -0.261688,-0.62343 -0.09329,-0.83063 z m -7.2835055,-0.57021 c -0.1838572,-6.6e-4 -0.3334823,0.14774 -0.3342013,0.3316 -6.659e-4,0.18487 0.1493288,0.33492 0.3342013,0.33421 h 0.6631961 c 0.1848725,6.5e-4 0.3349271,-0.14934 0.3342013,-0.33421 -6.658e-4,-0.18386 -0.1503442,-0.33231 -0.3342013,-0.3316 z m 5.5656666,0.3316 c 0.3582999,0 0.6905538,0.0987 0.9752899,0.26984 -0.06403,0.25208 -0.05133,0.5352 0.06047,0.80883 -0.3562228,0.18101 -0.6093365,0.54819 -0.6814026,0.95384 -0.055967,0.31504 0.014481,0.66216 0.2210653,0.96554 H 7.6382522 c -0.2174136,-0.30942 -0.3452503,-0.68536 -0.3452537,-1.09363 -3.3e-6,-1.05553 0.8488776,-1.90442 1.9044226,-1.90442 z m -0.002,0.66579 c -0.049123,0 -0.087636,0.005 -0.1183366,0.008 -0.1830881,0.0152 -0.319274,0.1758 -0.3042935,0.35891 0.014847,0.18306 0.1751651,0.31953 0.3582599,0.30493 0.03016,-0.003 0.05098,-0.005 0.06437,-0.005 0.1838538,6.7e-4 0.3334789,-0.14774 0.3341979,-0.33159 6.659e-4,-0.18488 -0.1493254,-0.33493 -0.3341979,-0.3342 z m -0.9050711,0.8147 c -0.1689332,0.003 -0.3092571,0.13101 -0.3263981,0.29909 -0.00403,0.0408 -0.00455,0.082 -0.00455,0.12481 -6.659e-4,0.18387 0.1477409,0.33349 0.331598,0.33421 0.1848725,6.7e-4 0.3349237,-0.14934 0.3342014,-0.33421 0,-0.0196 6.658e-4,-0.0384 0.00267,-0.0585 0.018109,-0.18342 -0.116258,-0.34664 -0.2997396,-0.36411 h -6.658e-4 c -0.012318,-0.001 -0.024701,-0.001 -0.037058,-0.001 z m 9.987639,0.51755 c -0.183924,6.7e-4 -0.332327,0.15028 -0.331598,0.33421 6.65e-4,0.18295 0.148636,0.33097 0.331598,0.3316 h 0.997397 c 0.582581,0 0.875582,0.19714 1.064371,0.44278 0.05693,0.0741 0.102908,0.15517 0.13979,0.23928 -0.06655,-0.0101 -0.134198,-0.0162 -0.203509,-0.0162 H 18.27799 c -0.183857,6.6e-4 -0.332318,0.15035 -0.331599,0.3342 3.33e-4,0.18309 0.148503,0.33154 0.331599,0.33225 h 1.998048 c 0.374613,0 0.665798,0.29119 0.665798,0.66581 0,0.3746 -0.291185,0.66579 -0.665798,0.66579 h -0.334196 c -0.183095,3.4e-4 -0.331535,0.1485 -0.332251,0.3316 -6.66e-4,0.18411 0.148141,0.33385 0.332251,0.3342 v 4.32769 h -3.661897 c -0.182961,6.7e-4 -0.330969,0.14865 -0.331602,0.3316 -6.65e-4,0.18391 0.147682,0.33358 0.331602,0.33421 h 3.996095 c 0.18391,-6.7e-4 0.332303,-0.1503 0.331601,-0.33421 v -4.7009 c 0.573143,-0.14855 0.999997,-0.67241 0.999997,-1.28998 0,-0.34246 -0.131169,-0.65598 -0.345902,-0.89272 -0.02207,-0.32784 -0.126752,-0.72051 -0.394017,-1.06828 -0.306038,-0.39819 -0.843298,-0.70286 -1.592329,-0.70286 z m -5.325093,6.99155 c -0.887735,-10e-6 -1.110317,-10e-6 -1.998052,0 -1.1899714,3e-5 -1.9849325,-0.76403 -2.2555234,-1.06957 0.2420082,-0.74329 0.2281429,-1.38151 0.085825,-1.89662 -0.2421112,-0.82617 -0.8201915,-1.48553 -1.4921961,-1.88036 v -0.4792 H 16.61414 v 0.66646 c 0,0 -0.03913,2.23096 -1.249349,3.44246 0,0 -0.924948,1.21686 -2.411895,1.21683 z m 5.698304,-4.70155 c -0.08742,1.7e-4 -0.171268,0.0347 -0.23342,0.0962 l -0.04161,0.0417 c -0.130841,0.13014 -0.130841,0.34189 0,0.47204 0.129851,0.12911 0.339591,0.12911 0.469443,0 l 0.04161,-0.0417 c 0.130841,-0.13015 0.130841,-0.34189 0,-0.47204 -0.0628,-0.0622 -0.147696,-0.0968 -0.236021,-0.0962 z m -13.8745029,0.4109 c 0.094943,0.0484 0.2073898,0.0484 0.3023395,0 0,0 1.1464698,-0.60732 2.3296486,0.3069 0.3647082,0.34062 0.6137638,0.7707 0.7347196,1.1944 0.1794129,0.64937 0.1402673,1.56561 -0.788686,2.86996 -0.3228328,0.43573 -0.6312976,0.75382 -1.0422623,1.09363 -0.1381534,0.0961 -0.2634201,0.14456 -0.3270472,0.15539 h -6.659e-4 -6.658e-4 c -0.1672055,-0.0317 -0.338296,-0.10003 -0.4876447,-0.15279 -0.2312987,-0.0847 -0.4447341,-0.1697 -0.4447341,-0.1697 -0.079643,-0.032 -0.1680844,-0.032 -0.2477239,0 0,0 -0.2114879,0.0851 -0.4427833,0.1697 -0.1658405,0.0692 -0.3148232,0.15279 -0.4882939,0.15279 -0.063464,0 -0.1891602,-0.059 -0.3276998,-0.15539 -0.4161712,-0.31092 -0.7194427,-0.67166 -1.0416132,-1.09363 -0.9289531,-1.30435 -0.9680955,-2.22059 -0.7886858,-2.86996 0.139335,-0.48497 0.405292,-0.91398 0.7347195,-1.1944 0.5156183,-0.39842 1.025937,-0.51213 1.4356465,-0.50911 0.3080821,-0.008 0.6023022,0.0888 0.8914322,0.20221 z m -1.3862143,0.36094 c -0.1113284,0.14663 -0.082489,0.3558 0.06437,0.46683 0,0 0.3623213,0.27925 0.9044186,0.41547 0.5420972,0.13622 1.3054927,0.12702 2.039663,-0.41026 0.1489927,-0.10908 0.1807912,-0.3185 0.070871,-0.46684 -0.1086824,-0.14756 -0.3161882,-0.17954 -0.464242,-0.0715 -0.5671978,0.41508 -1.0789811,0.40422 -1.484393,0.30235 -0.4054119,-0.10192 -0.6638485,-0.29714 -0.6638485,-0.29714 -0.2267513,-0.10783 -0.3582334,-0.0903 -0.4668386,0.0611 z m 15.2607172,0.892 c -0.0877,6.7e-4 -0.171584,0.036 -0.23342,0.0981 l -0.04161,0.0423 c -0.128677,0.12977 -0.128677,0.33901 0,0.46878 0.129851,0.12912 0.339591,0.12912 0.469443,0 l 0.04161,-0.0416 c 0.129106,-0.12985 0.129106,-0.33959 0,-0.46944 -0.06247,-0.0628 -0.147417,-0.0981 -0.236021,-0.0981 z m -0.6658,1.66385 c -0.0877,6.7e-4 -0.171584,0.036 -0.233419,0.0981 l -0.04161,0.0416 c -0.129107,0.12985 -0.129107,0.33959 0,0.46945 0.12985,0.1291 0.33959,0.1291 0.469442,0 l 0.04161,-0.0417 c 0.129108,-0.12985 0.129108,-0.33959 0,-0.46943 -0.06247,-0.0628 -0.147419,-0.0981 -0.236023,-0.0981 z m 1.142392,1.10338 c -0.08801,-6.6e-4 -0.172632,0.0339 -0.235371,0.0956 l -0.04226,0.0423 c -0.130402,0.13008 -0.130402,0.34132 0,0.47139 0.130148,0.13084 0.341896,0.13084 0.472043,0 l 0.04161,-0.0417 c 0.130839,-0.13015 0.130839,-0.34189 0,-0.47204 -0.0629,-0.0619 -0.147791,-0.0962 -0.236023,-0.0956 z m -2.13979,0.22822 c -0.0887,1.9e-4 -0.173653,0.0357 -0.236019,0.0989 l -0.04226,0.0417 c -0.129105,0.12986 -0.129105,0.33959 0,0.46945 0.130146,0.13083 0.341894,0.13083 0.472042,0 l 0.04161,-0.0423 c 0.128676,-0.12978 0.128676,-0.33902 0,-0.46879 -0.0622,-0.0629 -0.146899,-0.0985 -0.23537,-0.0989 z m -2.674902,0.43107 c 0.186105,0.16339 0.302992,0.3579 0.302992,0.60859 v 0.33421 H 9.2883993 v -0.33421 c 0,-0.26407 0.144282,-0.43359 0.323149,-0.60728 0.3837035,0.16294 0.8332547,0.27568 1.3432997,0.27568 0.887734,-1e-5 1.110317,-1e-5 1.998051,0 0.51732,0 0.972354,-0.11386 1.360205,-0.27699 z"
       sodipodi:nodetypes="cccscscccssccccccccccccccccccsscccsscccccccccccccccccsssccccscccssccccccccccccccccccccccccccccccccsscccccccccsccccsccccccccccccscccsscccscsccccccccccccccsccccccccscccccccccscccccsscsccscccscsccsccsccsccsscccccsccsccsccccsscccsscscccssscscccsccccscsscsscccccccsccccccccccccccccccccccccccccccsscccccccccccscccccccsccccccccccccccccccsccscssc" />
  </g>
</svg>
