<?xml version="1.0" ?><svg xmlns="http://www.w3.org/2000/svg" id="Layer_5" data-name="Layer 5" width="512" height="512" viewBox="0 0 512 512"><defs><style>
      .cls-1 {
        stroke-width: 0px;
      }
    </style></defs><path class="cls-1" d="m419.089,187.711c-.571,0-1.146.011-1.726.031-14.019-44.525-45.996-81.159-87.399-101.378,4.495-9.144,8.314-20.709,8.314-30.067,0-28.837-23.46-52.297-52.296-52.297-17.479,0-33.624,8.678-43.301,22.964-33.168-11.641-69.419,14.389-68.96,49.576,0,.977,0,3.104,2.457,12.828-38.555,20.728-68.191,55.973-81.542,98.375-28.55-1.03-52.51,22.123-52.452,50.696-.058,28.57,23.902,51.726,52.452,50.695,10.499,33.344,31.07,62.259,58.128,83.173.241,9.179,2.448,17.873,6.219,25.681-34.436,24.43-58.912,61.594-67.486,102.79-.676,3.244,1.407,6.422,4.651,7.097.412.086.823.127,1.229.127,2.783,0,5.279-1.946,5.868-4.778,7.9-37.959,30.344-72.243,61.947-94.938,10.728,14.185,26.594,23.526,44.885,25.229,1.709,20.114,19.981,36.666,40.181,36.328,0,0,11.486,0,11.486,0,20.199.338,38.473-16.216,40.181-36.328,18.291-1.704,34.157-11.045,44.885-25.229,5.774,4.144,11.301,8.71,16.484,13.622,2.405,2.279,6.203,2.177,8.482-.229s2.177-6.203-.229-8.482c-5.811-5.507-12.029-10.601-18.528-15.209,3.77-7.808,5.976-16.501,6.218-25.679,27.057-20.915,47.629-49.829,58.128-83.173,28.551,1.03,52.509-22.124,52.452-50.695,0-27.972-22.756-50.728-50.727-50.728Zm-327.746,89.422c-49.291-3.718-49.252-73.691,0-77.391-5.935,24.69-5.935,52.7,0,77.391ZM226.018,36.242c5.801,0,11.413,1.217,16.68,3.617,2.881,1.308,6.275.165,7.772-2.618,7.048-13.102,20.655-21.241,35.513-21.241,22.22,0,40.296,18.077,40.296,40.297,0,6.647-2.882,16.443-7.257,25.157-41.881-16.985-90.708-16.121-131.832,2.45-1.381-5.731-1.463-7.192-1.468-7.365,0-22.22,18.076-40.297,40.296-40.297Zm113.729,361.065c-8.479,13.927-23.645,23.192-40.005,24.331-1.203.085-2.405.138-3.616.139-3.313,0-6,2.687-6,6v1.682c0,15.65-12.732,28.383-28.383,28.383h-11.486c-16.302.052-29.242-13.849-28.383-30.065,0-3.313-2.687-6-6-6-23.511.209-45.178-17.154-49.965-40.172,53.693,34.514,126.489,34.514,180.182,0-1.237,5.637-3.412,10.926-6.344,15.702Zm67.475-116.192c-18.806,68.565-85.64,118.325-158.869,114.263-83.6-3.445-150.263-75.257-149.441-156.941-1.151-82.846,68.643-155.765,152.801-157.067,105.948-3.482,184.516,100.033,155.509,199.744Zm13.435-3.982c5.935-24.69,5.935-52.7,0-77.391,49.289,3.718,49.253,73.691,0,77.391Z"/><path class="cls-1" d="m344.276,250c-49.973.033-127.159-.024-176.553,0-3.314,0-6,2.686-6,6v8.632c0,51.984,42.292,94.276,94.276,94.276,55.495.256,98.384-48.062,94.276-102.909,0-3.313-2.686-6-5.999-6Zm-131.836,12h37.56v19.111c0,3.309-2.691,6-6,6h-25.56c-3.309,0-6-2.691-6-6v-19.111Zm125.836,2.632c0,45.367-36.909,82.276-82.276,82.276-46.341.084-83.703-38.647-82.276-84.908h26.717v19.111c0,9.925,8.075,18,18,18h25.56c9.925,0,18-8.075,18-18v-19.111h76.276v2.632Z"/><path class="cls-1" d="m184.272,226.692c3.313,0,6-2.687,6-6v-7.167c.888-21.447,31.449-21.442,32.335,0,0,0,0,7.167,0,7.167,0,3.313,2.687,6,6,6s6-2.687,6-6v-7.167c-1.547-37.367-54.793-37.357-56.335,0,0,0,0,7.167,0,7.167,0,3.313,2.687,6,6,6Z"/><path class="cls-1" d="m283.393,226.692c3.313,0,6-2.687,6-6v-7.167c.888-21.447,31.449-21.442,32.335,0,0,0,0,7.167,0,7.167,0,3.313,2.687,6,6,6s6-2.687,6-6v-7.167c-1.547-37.367-54.793-37.357-56.335,0,0,0,0,7.167,0,7.167,0,3.313,2.687,6,6,6Z"/><path class="cls-1" d="m383.583,429.292c-3.314,0-6,2.686-6,6,.275,7.943,11.727,7.94,12,0,0-3.314-2.686-6-6-6Z"/><path class="cls-1" d="m402.163,452.263c-4.151-6.761-14.121-1.121-10.432,5.93,8.009,14.09,13.737,29.24,17.024,45.03.661,3.266,3.934,5.335,7.097,4.651,3.244-.676,5.327-3.853,4.651-7.097-3.542-17.016-9.713-33.338-18.341-48.515Z"/></svg>